<mxfile host="app.diagrams.net" agent="Mozilla/5.0 (Windows NT 10.0; Win64; x64) AppleWebKit/537.36 (KHTML, like Gecko) Chrome/134.0.0.0 Safari/537.36" version="26.1.3">
  <diagram name="第 1 页" id="mJmnFCathP2rWBMEBaZS">
    <mxGraphModel dx="1185" dy="627" grid="1" gridSize="10" guides="1" tooltips="1" connect="1" arrows="1" fold="1" page="1" pageScale="1" pageWidth="827" pageHeight="1169" math="0" shadow="0">
      <root>
        <mxCell id="0" />
        <mxCell id="1" parent="0" />
        <mxCell id="nisyvm1sWn4LhIhgpAqg-1" value="" style="endArrow=classic;html=1;rounded=0;" parent="1" edge="1">
          <mxGeometry width="50" height="50" relative="1" as="geometry">
            <mxPoint x="209" y="719.67" as="sourcePoint" />
            <mxPoint x="540" y="720" as="targetPoint" />
          </mxGeometry>
        </mxCell>
        <mxCell id="nisyvm1sWn4LhIhgpAqg-2" value="" style="endArrow=classic;html=1;rounded=0;" parent="1" edge="1">
          <mxGeometry width="50" height="50" relative="1" as="geometry">
            <mxPoint x="209" y="720" as="sourcePoint" />
            <mxPoint x="210" y="620" as="targetPoint" />
          </mxGeometry>
        </mxCell>
        <mxCell id="nisyvm1sWn4LhIhgpAqg-3" value="&lt;font style=&quot;font-size: 10px;&quot; face=&quot;Times New Roman&quot;&gt;&lt;i&gt;L/U&lt;/i&gt;&lt;/font&gt;" style="text;html=1;align=center;verticalAlign=middle;resizable=0;points=[];autosize=1;strokeColor=none;fillColor=none;" parent="1" vertex="1">
          <mxGeometry x="169" y="700" width="40" height="30" as="geometry" />
        </mxCell>
        <mxCell id="nisyvm1sWn4LhIhgpAqg-4" value="&lt;i style=&quot;font-family: &amp;quot;Times New Roman&amp;quot;; font-size: 10px;&quot;&gt;M&lt;sub&gt;1&lt;/sub&gt;&lt;/i&gt;" style="text;html=1;align=center;verticalAlign=middle;resizable=0;points=[];autosize=1;strokeColor=none;fillColor=none;" parent="1" vertex="1">
          <mxGeometry x="169" y="675" width="40" height="30" as="geometry" />
        </mxCell>
        <mxCell id="nisyvm1sWn4LhIhgpAqg-5" value="&lt;i style=&quot;font-family: &amp;quot;Times New Roman&amp;quot;; font-size: 10px;&quot;&gt;M&lt;sub&gt;2&lt;/sub&gt;&lt;/i&gt;" style="text;html=1;align=center;verticalAlign=middle;resizable=0;points=[];autosize=1;strokeColor=none;fillColor=none;" parent="1" vertex="1">
          <mxGeometry x="169" y="645" width="40" height="30" as="geometry" />
        </mxCell>
        <mxCell id="nisyvm1sWn4LhIhgpAqg-7" value="&lt;span style=&quot;font-size: 8.33333px;&quot;&gt;O&lt;sub&gt;21&lt;/sub&gt;&lt;/span&gt;" style="rounded=0;whiteSpace=wrap;html=1;fontSize=10;fontStyle=2;fontFamily=Times New Roman;fillColor=#C0E0DB;strokeColor=#82b366;dashed=1;" parent="1" vertex="1">
          <mxGeometry x="270" y="645" width="60" height="20" as="geometry" />
        </mxCell>
        <mxCell id="nisyvm1sWn4LhIhgpAqg-8" value="&lt;sub&gt;&lt;span&gt;O&lt;sub&gt;12&lt;/sub&gt;&lt;/span&gt;&lt;/sub&gt;" style="rounded=0;whiteSpace=wrap;html=1;fontSize=10;fontFamily=Times New Roman;fontStyle=2;fillColor=#e1d5e7;strokeColor=#8390CA;opacity=60;" parent="1" vertex="1">
          <mxGeometry x="351.5" y="645" width="55" height="20" as="geometry" />
        </mxCell>
        <mxCell id="nisyvm1sWn4LhIhgpAqg-10" value="&lt;font&gt;O&lt;sub&gt;31&lt;/sub&gt;&lt;/font&gt;" style="rounded=0;whiteSpace=wrap;html=1;fontFamily=Times New Roman;fillColor=#F7A7A6;strokeColor=#d79b00;fontStyle=2;fontSize=10;opacity=60;" parent="1" vertex="1">
          <mxGeometry x="320" y="680" width="55" height="20" as="geometry" />
        </mxCell>
        <mxCell id="nisyvm1sWn4LhIhgpAqg-14" value="" style="endArrow=classic;html=1;rounded=0;entryX=0;entryY=0.5;entryDx=0;entryDy=0;strokeColor=light-dark(#66c4ff, #004a4a);endSize=3;" parent="1" edge="1">
          <mxGeometry width="50" height="50" relative="1" as="geometry">
            <mxPoint x="209" y="720" as="sourcePoint" />
            <mxPoint x="249" y="690" as="targetPoint" />
          </mxGeometry>
        </mxCell>
        <mxCell id="nisyvm1sWn4LhIhgpAqg-15" value="" style="rounded=0;whiteSpace=wrap;html=1;fontSize=10;fontFamily=Times New Roman;fontStyle=2;fillColor=#8390CA;strokeColor=#56517e;" parent="1" vertex="1">
          <mxGeometry x="280" y="605" width="20" height="10" as="geometry" />
        </mxCell>
        <mxCell id="nisyvm1sWn4LhIhgpAqg-17" value="" style="rounded=0;whiteSpace=wrap;html=1;fontSize=10;fontStyle=2;fontFamily=Times New Roman;fillColor=#C0E0DB;strokeColor=#82b366;" parent="1" vertex="1">
          <mxGeometry x="340" y="605" width="20" height="10" as="geometry" />
        </mxCell>
        <mxCell id="nisyvm1sWn4LhIhgpAqg-18" value="" style="rounded=0;whiteSpace=wrap;html=1;fontFamily=Times New Roman;fillColor=#F7A7A6;strokeColor=#d79b00;" parent="1" vertex="1">
          <mxGeometry x="410" y="605" width="20" height="10" as="geometry" />
        </mxCell>
        <mxCell id="nisyvm1sWn4LhIhgpAqg-19" value="" style="endArrow=none;html=1;rounded=0;strokeColor=light-dark(#66c4ff, #004a4a);jumpSize=6;endSize=3;startFill=0;strokeWidth=3;" parent="1" edge="1">
          <mxGeometry width="50" height="50" relative="1" as="geometry">
            <mxPoint x="490" y="610" as="sourcePoint" />
            <mxPoint x="510" y="610" as="targetPoint" />
          </mxGeometry>
        </mxCell>
        <mxCell id="nisyvm1sWn4LhIhgpAqg-20" value="" style="endArrow=none;html=1;rounded=0;strokeColor=#FF6666;endSize=3;fillColor=#fad9d5;exitX=1;exitY=0.5;exitDx=0;exitDy=0;strokeWidth=3;startFill=0;" parent="1" edge="1">
          <mxGeometry width="50" height="50" relative="1" as="geometry">
            <mxPoint x="490" y="629.8299999999999" as="sourcePoint" />
            <mxPoint x="510" y="629.8299999999999" as="targetPoint" />
          </mxGeometry>
        </mxCell>
        <mxCell id="nisyvm1sWn4LhIhgpAqg-21" value="AGV1" style="text;html=1;align=center;verticalAlign=middle;resizable=0;points=[];autosize=1;strokeColor=none;fillColor=none;fontSize=10;fontFamily=Times New Roman;fontStyle=2" parent="1" vertex="1">
          <mxGeometry x="500" y="595" width="50" height="30" as="geometry" />
        </mxCell>
        <mxCell id="nisyvm1sWn4LhIhgpAqg-22" value="AGV2" style="text;html=1;align=center;verticalAlign=middle;resizable=0;points=[];autosize=1;strokeColor=none;fillColor=none;fontSize=10;fontFamily=Times New Roman;fontStyle=2" parent="1" vertex="1">
          <mxGeometry x="500" y="615" width="50" height="30" as="geometry" />
        </mxCell>
        <mxCell id="nisyvm1sWn4LhIhgpAqg-23" value="Job1" style="text;html=1;align=center;verticalAlign=middle;resizable=0;points=[];autosize=1;strokeColor=none;fillColor=none;fontSize=10;fontFamily=Times New Roman;fontStyle=2" parent="1" vertex="1">
          <mxGeometry x="300" y="595" width="40" height="30" as="geometry" />
        </mxCell>
        <mxCell id="nisyvm1sWn4LhIhgpAqg-24" value="Job2" style="text;html=1;align=center;verticalAlign=middle;resizable=0;points=[];autosize=1;strokeColor=none;fillColor=none;fontSize=10;fontFamily=Times New Roman;fontStyle=2" parent="1" vertex="1">
          <mxGeometry x="360" y="595" width="40" height="30" as="geometry" />
        </mxCell>
        <mxCell id="nisyvm1sWn4LhIhgpAqg-25" value="Job3" style="text;html=1;align=center;verticalAlign=middle;resizable=0;points=[];autosize=1;strokeColor=none;fillColor=none;fontSize=10;fontFamily=Times New Roman;fontStyle=2" parent="1" vertex="1">
          <mxGeometry x="430" y="595" width="40" height="30" as="geometry" />
        </mxCell>
        <mxCell id="nisyvm1sWn4LhIhgpAqg-27" value="time" style="text;html=1;align=center;verticalAlign=middle;resizable=0;points=[];autosize=1;strokeColor=none;fillColor=none;fontSize=10;fontFamily=Times New Roman;fontStyle=0" parent="1" vertex="1">
          <mxGeometry x="510" y="690" width="40" height="30" as="geometry" />
        </mxCell>
        <mxCell id="nisyvm1sWn4LhIhgpAqg-28" value="C&lt;sub&gt;max&lt;/sub&gt;" style="text;html=1;align=center;verticalAlign=middle;resizable=0;points=[];autosize=1;strokeColor=none;fillColor=none;fontSize=10;fontFamily=Times New Roman;fontStyle=2" parent="1" vertex="1">
          <mxGeometry x="489" y="720" width="40" height="30" as="geometry" />
        </mxCell>
        <mxCell id="nisyvm1sWn4LhIhgpAqg-29" value="" style="endArrow=classic;html=1;rounded=0;strokeColor=#FF6666;endSize=3;fillColor=#fad9d5;entryX=0;entryY=0.5;entryDx=0;entryDy=0;" parent="1" target="nisyvm1sWn4LhIhgpAqg-7" edge="1">
          <mxGeometry width="50" height="50" relative="1" as="geometry">
            <mxPoint x="210" y="720" as="sourcePoint" />
            <mxPoint x="280" y="750" as="targetPoint" />
          </mxGeometry>
        </mxCell>
        <mxCell id="nisyvm1sWn4LhIhgpAqg-30" value="" style="endArrow=classic;html=1;rounded=0;strokeColor=light-dark(#66c4ff, #004a4a);jumpSize=6;endSize=3;entryX=0;entryY=0.5;entryDx=0;entryDy=0;" parent="1" target="nisyvm1sWn4LhIhgpAqg-10" edge="1">
          <mxGeometry width="50" height="50" relative="1" as="geometry">
            <mxPoint x="280" y="720" as="sourcePoint" />
            <mxPoint x="370" y="730" as="targetPoint" />
          </mxGeometry>
        </mxCell>
        <mxCell id="nisyvm1sWn4LhIhgpAqg-31" value="" style="endArrow=classic;html=1;rounded=0;strokeColor=#FF6666;endSize=3;fillColor=#fad9d5;exitX=1;exitY=0.5;exitDx=0;exitDy=0;" parent="1" source="nisyvm1sWn4LhIhgpAqg-61" edge="1">
          <mxGeometry width="50" height="50" relative="1" as="geometry">
            <mxPoint x="484" y="660" as="sourcePoint" />
            <mxPoint x="510" y="720" as="targetPoint" />
          </mxGeometry>
        </mxCell>
        <mxCell id="nisyvm1sWn4LhIhgpAqg-35" value="" style="endArrow=classic;html=1;rounded=0;strokeColor=#FF6666;endSize=3;fillColor=#fad9d5;dashed=1;exitX=0;exitY=0.5;exitDx=0;exitDy=0;entryX=1;entryY=0.5;entryDx=0;entryDy=0;" parent="1" source="nisyvm1sWn4LhIhgpAqg-7" target="nisyvm1sWn4LhIhgpAqg-7" edge="1">
          <mxGeometry width="50" height="50" relative="1" as="geometry">
            <mxPoint x="280" y="652.5" as="sourcePoint" />
            <mxPoint x="320" y="697.5" as="targetPoint" />
          </mxGeometry>
        </mxCell>
        <mxCell id="nisyvm1sWn4LhIhgpAqg-51" value="" style="endArrow=none;html=1;rounded=0;strokeColor=light-dark(#66c4ff, #004a4a);jumpSize=6;endSize=3;exitX=0;exitY=0.5;exitDx=0;exitDy=0;dashed=1;entryX=1;entryY=0.5;entryDx=0;entryDy=0;startArrow=none;startFill=0;" parent="1" source="nisyvm1sWn4LhIhgpAqg-8" target="nisyvm1sWn4LhIhgpAqg-8" edge="1">
          <mxGeometry width="50" height="50" relative="1" as="geometry">
            <mxPoint x="469" y="650" as="sourcePoint" />
            <mxPoint x="489" y="610" as="targetPoint" />
          </mxGeometry>
        </mxCell>
        <mxCell id="nisyvm1sWn4LhIhgpAqg-52" value="" style="endArrow=classic;html=1;rounded=0;strokeColor=light-dark(#66c4ff, #004a4a);jumpSize=6;endSize=3;exitX=0;exitY=0.5;exitDx=0;exitDy=0;dashed=1;" parent="1" edge="1">
          <mxGeometry width="50" height="50" relative="1" as="geometry">
            <mxPoint x="249" y="690" as="sourcePoint" />
            <mxPoint x="280" y="720" as="targetPoint" />
          </mxGeometry>
        </mxCell>
        <mxCell id="nisyvm1sWn4LhIhgpAqg-53" value="" style="endArrow=classic;html=1;rounded=0;strokeColor=light-dark(#66c4ff, #004a4a);jumpSize=6;endSize=3;entryX=0;entryY=0.5;entryDx=0;entryDy=0;exitX=1;exitY=0.5;exitDx=0;exitDy=0;" parent="1" target="nisyvm1sWn4LhIhgpAqg-8" edge="1">
          <mxGeometry width="50" height="50" relative="1" as="geometry">
            <mxPoint x="320" y="690" as="sourcePoint" />
            <mxPoint x="375" y="600" as="targetPoint" />
          </mxGeometry>
        </mxCell>
        <mxCell id="nisyvm1sWn4LhIhgpAqg-9" value="O&lt;sub&gt;22&lt;/sub&gt;" style="rounded=0;whiteSpace=wrap;html=1;fontSize=10;fontStyle=2;fontFamily=Times New Roman;fillColor=#C0E0DB;strokeColor=#82b366;dashed=1;" parent="1" vertex="1">
          <mxGeometry x="384" y="680" width="56" height="20" as="geometry" />
        </mxCell>
        <mxCell id="nisyvm1sWn4LhIhgpAqg-55" value="" style="endArrow=classic;html=1;rounded=0;strokeColor=#FF6666;endSize=3;fillColor=#fad9d5;entryX=0;entryY=0.5;entryDx=0;entryDy=0;exitX=1;exitY=0.5;exitDx=0;exitDy=0;" parent="1" source="nisyvm1sWn4LhIhgpAqg-7" target="nisyvm1sWn4LhIhgpAqg-9" edge="1">
          <mxGeometry width="50" height="50" relative="1" as="geometry">
            <mxPoint x="330" y="625" as="sourcePoint" />
            <mxPoint x="340" y="665" as="targetPoint" />
          </mxGeometry>
        </mxCell>
        <mxCell id="nisyvm1sWn4LhIhgpAqg-56" value="" style="endArrow=classic;html=1;rounded=0;strokeColor=light-dark(#66c4ff, #004a4a);jumpSize=6;endSize=3;exitX=0;exitY=0.5;exitDx=0;exitDy=0;dashed=1;" parent="1" edge="1">
          <mxGeometry width="50" height="50" relative="1" as="geometry">
            <mxPoint x="429" y="720" as="sourcePoint" />
            <mxPoint x="440" y="690" as="targetPoint" />
          </mxGeometry>
        </mxCell>
        <mxCell id="nisyvm1sWn4LhIhgpAqg-57" value="" style="endArrow=classic;html=1;rounded=0;strokeColor=light-dark(#66c4ff, #004a4a);jumpSize=6;endSize=3;exitX=1;exitY=0.5;exitDx=0;exitDy=0;" parent="1" source="nisyvm1sWn4LhIhgpAqg-8" edge="1">
          <mxGeometry width="50" height="50" relative="1" as="geometry">
            <mxPoint x="414" y="665" as="sourcePoint" />
            <mxPoint x="430" y="720" as="targetPoint" />
          </mxGeometry>
        </mxCell>
        <mxCell id="nisyvm1sWn4LhIhgpAqg-58" value="" style="endArrow=classic;html=1;rounded=0;strokeColor=light-dark(#66c4ff, #004a4a);jumpSize=6;endSize=3;" parent="1" edge="1">
          <mxGeometry width="50" height="50" relative="1" as="geometry">
            <mxPoint x="440" y="690" as="sourcePoint" />
            <mxPoint x="460" y="720" as="targetPoint" />
          </mxGeometry>
        </mxCell>
        <mxCell id="nisyvm1sWn4LhIhgpAqg-60" value="&lt;sub&gt;&lt;span&gt;O&lt;sub&gt;11&lt;/sub&gt;&lt;/span&gt;&lt;/sub&gt;" style="rounded=0;whiteSpace=wrap;html=1;fontSize=10;fontFamily=Times New Roman;fontStyle=2;fillColor=#8390CA;strokeColor=#9673a6;opacity=60;" parent="1" vertex="1">
          <mxGeometry x="250" y="680" width="70" height="20" as="geometry" />
        </mxCell>
        <mxCell id="nisyvm1sWn4LhIhgpAqg-61" value="&lt;font&gt;O&lt;sub&gt;32&lt;/sub&gt;&lt;/font&gt;" style="rounded=0;whiteSpace=wrap;html=1;fontFamily=Times New Roman;fillColor=#F7A7A6;strokeColor=#d79b00;fontStyle=2;fontSize=10;opacity=60;dashed=1;fillStyle=auto;" parent="1" vertex="1">
          <mxGeometry x="429" y="645" width="55" height="20" as="geometry" />
        </mxCell>
        <mxCell id="nisyvm1sWn4LhIhgpAqg-62" value="" style="endArrow=classic;html=1;rounded=0;strokeColor=#FF6666;endSize=3;fillColor=#fad9d5;entryX=0;entryY=0.5;entryDx=0;entryDy=0;exitX=0;exitY=0.5;exitDx=0;exitDy=0;" parent="1" source="nisyvm1sWn4LhIhgpAqg-9" target="nisyvm1sWn4LhIhgpAqg-61" edge="1">
          <mxGeometry width="50" height="50" relative="1" as="geometry">
            <mxPoint x="340" y="665" as="sourcePoint" />
            <mxPoint x="394" y="700" as="targetPoint" />
          </mxGeometry>
        </mxCell>
        <mxCell id="nisyvm1sWn4LhIhgpAqg-63" value="" style="endArrow=none;html=1;rounded=0;strokeColor=#FF6666;endSize=3;fillColor=#fad9d5;dashed=1;exitX=0;exitY=0.5;exitDx=0;exitDy=0;startFill=0;entryX=1;entryY=0.5;entryDx=0;entryDy=0;" parent="1" target="nisyvm1sWn4LhIhgpAqg-61" edge="1">
          <mxGeometry width="50" height="50" relative="1" as="geometry">
            <mxPoint x="429" y="654.88" as="sourcePoint" />
            <mxPoint x="480" y="655" as="targetPoint" />
          </mxGeometry>
        </mxCell>
      </root>
    </mxGraphModel>
  </diagram>
</mxfile>
